<svg xmlns="http://www.w3.org/2000/svg" viewBox="0 0 121.36 121.32"><defs><style>.cls-1{font-size:16px;fill:#1c1c1c;font-family:Roboto-Regular, Roboto;}</style></defs><g id="레이어_2" data-name="레이어 2"><g id="레이어_1-2" data-name="레이어 1"><text class="cls-1" transform="matrix(0.99, -0.16, 0.16, 0.99, 50.53, 14.7)">r</text><text class="cls-1" transform="translate(55.57 13.77) rotate(-1.04)">e</text><text class="cls-1" transform="matrix(0.99, 0.16, -0.16, 0.99, 63.81, 13.57)">p</text><text class="cls-1" transform="translate(72.44 14.96) rotate(19.71)">a</text><text class="cls-1" transform="translate(80.45 17.98) rotate(27.25)">i</text><text class="cls-1" transform="translate(83.89 19.71) rotate(32.88)">r</text><text class="cls-1" transform="translate(88.4 22.67) rotate(38.55)"> </text><text class="cls-1" transform="translate(91.51 24.97) rotate(45.81)">s</text><text class="cls-1" transform="matrix(0.56, 0.83, -0.83, 0.56, 97.13, 30.7)">e</text><text class="cls-1" transform="translate(101.74 37.62) rotate(63.92)">r</text><text class="cls-1" transform="translate(104.2 42.47) rotate(72.01)">v</text><text class="cls-1" transform="translate(106.45 49.77) rotate(79.02)">i</text><text class="cls-1" transform="matrix(0.06, 1, -1, 0.06, 107.32, 53.45)">c</text><text class="cls-1" transform="matrix(-0.11, 0.99, -0.99, -0.11, 107.86, 61.59)">e</text><text class="cls-1" transform="translate(106.83 69.87) rotate(103.63)"> </text><text class="cls-1" transform="matrix(-0.37, 0.93, -0.93, -0.37, 106.1, 73.65)">g</text><text class="cls-1" transform="translate(102.92 81.79) rotate(121.98)">u</text><text class="cls-1" transform="translate(98.19 89.08) rotate(129.53)">i</text><text class="cls-1" transform="translate(95.93 92.1) rotate(137.18)">d</text><text class="cls-1" transform="matrix(-0.84, 0.54, -0.54, -0.84, 89.5, 98.06)">e</text><text class="cls-1" transform="translate(82.37 102.44) rotate(154.93)"> </text><text class="cls-1" transform="matrix(-0.94, 0.34, -0.34, -0.94, 78.79, 104.12)">.</text><text class="cls-1" transform="translate(74.83 105.56) rotate(164.95)"> </text><text class="cls-1" transform="translate(71.06 106.61) rotate(170.64)">r</text><text class="cls-1" transform="translate(66 107.57) rotate(178.71)">e</text><text class="cls-1" transform="translate(57.78 107.81) rotate(-171.09)">p</text><text class="cls-1" transform="translate(49.13 106.46) rotate(-160.55)">a</text><text class="cls-1" transform="matrix(-0.89, -0.45, 0.45, -0.89, 41.11, 103.47)">i</text><text class="cls-1" transform="matrix(-0.84, -0.54, 0.54, -0.84, 37.66, 101.76)">r</text><text class="cls-1" transform="matrix(-0.78, -0.62, 0.62, -0.78, 33.14, 98.82)"> </text><text class="cls-1" transform="matrix(-0.7, -0.71, 0.71, -0.7, 30.02, 96.54)">s</text><text class="cls-1" transform="translate(24.38 90.83) rotate(-124.6)">e</text><text class="cls-1" transform="translate(19.74 83.93) rotate(-116.34)">r</text><text class="cls-1" transform="translate(17.25 79.09) rotate(-108.25)">v</text><text class="cls-1" transform="translate(14.97 71.81) rotate(-101.25)">i</text><text class="cls-1" transform="matrix(-0.07, -1, 1, -0.07, 14.08, 68.14)">c</text><text class="cls-1" transform="translate(13.5 59.98) rotate(-84.06)">e</text><text class="cls-1" transform="translate(14.5 51.71) rotate(-76.64)"> </text><text class="cls-1" transform="matrix(0.36, -0.93, 0.93, 0.36, 15.21, 47.94)">g</text><text class="cls-1" transform="translate(18.35 39.78) rotate(-58.31)">u</text><text class="cls-1" transform="matrix(0.63, -0.77, 0.77, 0.63, 23.05, 32.45)">i</text><text class="cls-1" transform="translate(25.29 29.43) rotate(-43.08)">d</text><text class="cls-1" transform="translate(31.7 23.44) rotate(-32.79)">e</text><text class="cls-1" transform="matrix(0.9, -0.43, 0.43, 0.9, 38.81, 19.03)"> </text><text class="cls-1" transform="matrix(0.94, -0.35, 0.35, 0.94, 42.38, 17.33)">.</text><text class="cls-1" transform="translate(46.33 15.87) rotate(-15.32)"> </text></g></g></svg>