<svg xmlns="http://www.w3.org/2000/svg" viewBox="0 0 121.36 121.32"><defs><style>.cls-1,.cls-2{font-size:16px;}.cls-1{fill:#fff;font-family:Roboto-Light, Roboto;font-weight:300;}.cls-2{font-family:Roboto-Regular, Roboto;}</style></defs><g id="레이어_2" data-name="레이어 2"><g id="레이어_1-2" data-name="레이어 1"><text class="cls-1" transform="matrix(0.99, -0.16, 0.16, 0.99, 50.54, 14.7)">r</text><text class="cls-1" transform="translate(55.57 13.78) rotate(-1.18)">e</text><text class="cls-1" transform="matrix(0.99, 0.15, -0.15, 0.99, 63.61, 13.56)">p</text><text class="cls-1" transform="translate(72.12 14.88) rotate(19.23)">a</text><text class="cls-1" transform="matrix(0.89, 0.45, -0.45, 0.89, 80.06, 17.81)">i</text><text class="cls-1" transform="translate(83.25 19.36) rotate(31.97)">r</text><text class="cls-1" transform="translate(87.77 22.22) rotate(37.56)"> </text><text class="cls-1" transform="matrix(0.71, 0.7, -0.7, 0.71, 90.86, 24.42)">s</text><text class="cls-1" transform="translate(96.5 29.97) rotate(54.37)">e</text><text class="cls-1" transform="translate(101.15 36.61) rotate(62.49)">r</text><text class="cls-1" transform="translate(103.72 41.37) rotate(70.51)">v</text><text class="cls-1" transform="translate(106.14 48.57) rotate(77.32)">i</text><text class="cls-1" transform="matrix(0.1, 1, -1, 0.1, 107.05, 51.92)">c</text><text class="cls-1" transform="translate(107.86 59.93) rotate(94.06)">e</text><text class="cls-1" transform="translate(107.15 68.05) rotate(101.32)"> </text><text class="cls-1" transform="translate(106.58 71.8) rotate(109.01)">g</text><text class="cls-1" transform="translate(103.79 79.94) rotate(119.47)">u</text><text class="cls-1" transform="translate(99.38 87.42) rotate(126.88)">i</text><text class="cls-1" transform="translate(97.44 90.31) rotate(134.27)">d</text><text class="cls-1" transform="translate(91.39 96.5) rotate(144.37)">e</text><text class="cls-1" transform="translate(84.69 101.14) rotate(151.64)"> </text><text class="cls-1" transform="translate(81.25 103) rotate(156.37)">.</text><text class="cls-1" transform="translate(77.73 104.54) rotate(161.13)"> </text><text class="cls-1" transform="translate(74.1 105.82) rotate(166.78)">r</text><text class="cls-1" transform="translate(69.16 107.1) rotate(174.74)">e</text><text class="cls-1" transform="translate(61.15 107.88) rotate(-175.24)">p</text><text class="cls-1" transform="matrix(-0.97, -0.26, 0.26, -0.97, 52.55, 107.18)">a</text><text class="cls-1" transform="translate(44.44 104.84) rotate(-157.6)">i</text><text class="cls-1" transform="matrix(-0.88, -0.47, 0.47, -0.88, 41.13, 103.52)">r</text><text class="cls-1" transform="translate(36.41 100.98) rotate(-146.52)"> </text><text class="cls-1" transform="translate(33.16 99) rotate(-139.35)">s</text><text class="cls-1" transform="translate(27.17 93.89) rotate(-129.75)">e</text><text class="cls-1" transform="matrix(-0.52, -0.85, 0.85, -0.52, 22.05, 87.59)">r</text><text class="cls-1" transform="translate(19.15 83.04) rotate(-113.65)">v</text><text class="cls-1" transform="translate(16.21 76.03) rotate(-106.83)">i</text><text class="cls-1" transform="translate(15.06 72.74) rotate(-99.72)">c</text><text class="cls-1" transform="translate(13.75 64.85) rotate(-90.93)">e</text><text class="cls-1" transform="translate(13.81 56.66) rotate(-82.8)"> </text><text class="cls-1" transform="translate(14.11 52.91) rotate(-75.17)">g</text><text class="cls-1" transform="translate(16.3 44.57) rotate(-64.67)">u</text><text class="cls-1" transform="translate(20.16 36.8) rotate(-57.25)">i</text><text class="cls-1" transform="matrix(0.65, -0.76, 0.76, 0.65, 21.89, 33.78)">d</text><text class="cls-1" transform="translate(27.49 27.16) rotate(-39.72)">e</text><text class="cls-1" transform="translate(33.83 22.05) rotate(-32.49)"> </text><text class="cls-1" transform="translate(37.12 19.96) rotate(-27.77)">.</text><text class="cls-2" transform="translate(40.53 18.16) rotate(-22.97)"> </text></g></g></svg>