<svg xmlns="http://www.w3.org/2000/svg" viewBox="0 0 121.3 121.36"><defs><style>.cls-1{font-size:14px;}.cls-1,.cls-2{fill:#1c1c1c;font-family:Roboto-Regular, Roboto;}.cls-2{font-size:16px;}</style></defs><g id="레이어_2" data-name="레이어 2"><g id="레이어_1-2" data-name="레이어 1"><text class="cls-1" transform="translate(50.54 14.71) rotate(-9.45)">r</text><text class="cls-1" transform="translate(55.81 13.78) rotate(-1.36)">e</text><text class="cls-1" transform="translate(63.86 13.63) rotate(8.6)">p</text><text class="cls-1" transform="translate(72.26 14.97) rotate(18.87)">a</text><text class="cls-1" transform="matrix(0.89, 0.45, -0.45, 0.89, 80.09, 17.84)">i</text><text class="cls-1" transform="translate(83.84 19.72) rotate(32.45)">r</text><text class="cls-1" transform="translate(88.48 22.76) rotate(38.42)"> </text><text class="cls-1" transform="translate(91.82 25.31) rotate(45.77)">s</text><text class="cls-1" transform="matrix(0.57, 0.82, -0.82, 0.57, 97.29, 31)">e</text><text class="cls-1" transform="matrix(0.44, 0.9, -0.9, 0.44, 101.77, 37.77)">r</text><text class="cls-1" transform="translate(104.25 42.76) rotate(71.79)">v</text><text class="cls-1" transform="translate(106.46 49.97) rotate(78.97)">i</text><text class="cls-1" transform="translate(107.33 54.04) rotate(86.42)">c</text><text class="cls-1" transform="matrix(-0.11, 0.99, -0.99, -0.11, 107.78, 62.02)">e</text><text class="cls-1" transform="translate(106.75 70.09) rotate(103.6)"> </text><text class="cls-1" transform="matrix(-0.37, 0.93, -0.93, -0.37, 105.86, 74.19)">g</text><text class="cls-1" transform="translate(102.7 82.07) rotate(121.72)">u</text><text class="cls-1" transform="matrix(-0.63, 0.77, -0.77, -0.63, 98.09, 89.16)">i</text><text class="cls-1" transform="matrix(-0.73, 0.68, -0.68, -0.73, 95.54, 92.43)">d</text><text class="cls-1" transform="matrix(-0.84, 0.54, -0.54, -0.84, 89.22, 98.19)">e</text><text class="cls-1" transform="translate(82.28 102.46) rotate(154.71)"> </text><text class="cls-1" transform="matrix(-0.94, 0.34, -0.34, -0.94, 78.4, 104.26)">.</text><text class="cls-1" transform="matrix(-0.97, 0.25, -0.25, -0.97, 74.15, 105.75)"> </text><text class="cls-1" transform="translate(70.01 106.81) rotate(171.49)">r</text><text class="cls-1" transform="translate(64.74 107.62) rotate(179.07)">e</text><text class="cls-1" transform="translate(56.68 107.68) rotate(-170.46)">p</text><text class="cls-1" transform="translate(48.32 106.21) rotate(-160.2)">a</text><text class="cls-1" transform="translate(40.51 103.19) rotate(-152.53)">i</text><text class="cls-1" transform="matrix(-0.83, -0.55, 0.55, -0.83, 36.8, 101.25)">r</text><text class="cls-1" transform="translate(32.21 98.14) rotate(-140.64)"> </text><text class="cls-1" transform="matrix(-0.69, -0.73, 0.73, -0.69, 28.92, 95.53)">s</text><text class="cls-1" transform="matrix(-0.55, -0.83, 0.83, -0.55, 23.54, 89.76)">e</text><text class="cls-1" transform="translate(19.17 82.91) rotate(-115.33)">r</text><text class="cls-1" transform="matrix(-0.3, -0.96, 0.96, -0.3, 16.76, 77.86)">v</text><text class="cls-1" transform="translate(14.68 70.64) rotate(-100.08)">i</text><text class="cls-1" transform="translate(13.88 66.57) rotate(-92.68)">c</text><text class="cls-1" transform="translate(13.56 58.58) rotate(-83)">e</text><text class="cls-1" transform="translate(14.73 50.51) rotate(-75.44)"> </text><text class="cls-1" transform="translate(15.69 46.42) rotate(-67.6)">g</text><text class="cls-1" transform="translate(18.98 38.6) rotate(-57.34)">u</text><text class="cls-1" transform="translate(23.7 31.59) rotate(-49.7)">i</text><text class="cls-1" transform="translate(26.3 28.37) rotate(-41.97)">d</text><text class="cls-1" transform="matrix(0.85, -0.53, 0.53, 0.85, 32.7, 22.72)">e</text><text class="cls-1" transform="translate(39.7 18.56) rotate(-24.37)"> </text><text class="cls-1" transform="translate(43.64 16.82) rotate(-18.96)">.</text><text class="cls-2" transform="translate(47.9 15.39) rotate(-13.27)"> </text></g></g></svg>